# File created by Blade
# Date/Time:  Fri Jan 16 19:14:28 2015
# Frame Rate: 120.000 fps
#------------------------------------------------------
:FULLY-SPECIFIED
:DEGREES
621
root 18.830070 35.604796 -23.669929 -164.521816 -0.822617 -178.483969
Spine -33.433113 1.984747 1.314472
Head 26.472733 -1.411194 -1.436196
LeftShoulder -33.526054 -49.689377 58.411526
LeftArm 34.638851 -64.237163 -6.497634
LeftForeArm -9.886084 -0.000000 123.282761
LeftHand -20.079767 -0.000000 -19.590763
LeftHandThumb1 -26.253704 0.000000 33.147579
RightShoulder -22.242445 16.486343 -36.996598
RightArm 34.533216 78.605289 -0.072001
RightForeArm -84.307611 0.000000 140.602073
RightHand -8.643293 -0.000000 42.240199
RightHandThumb1 -24.326973 -0.000000 -32.862282
LeftUpLeg -3.196588 7.272749 0.092045
LeftLeg -7.691965 -0.000000 0.000000
LeftFoot -22.276195 28.100120 -17.526357
LeftToeBase 23.197030 -0.000000 -0.000000
RightUpLeg -5.067601 -9.388844 1.306298
RightLeg -4.214633 -0.000000 0.000000
RightFoot -21.301018 -22.021273 21.383857
RightToeBase 22.329656 -0.000000 -0.000000
622
root 18.830079 35.605080 -23.669123 -164.526514 -0.826181 -178.483363
Spine -33.430339 1.988290 1.313744
Head 26.481026 -1.389675 -1.439556
LeftShoulder -33.512696 -49.671856 58.380337
LeftArm 34.692258 -64.265895 -6.542455
LeftForeArm -10.106825 0.000000 123.199728
LeftHand -20.015313 0.000000 -19.645720
LeftHandThumb1 -26.253704 0.000000 33.147579
RightShoulder -22.247787 16.464145 -36.980143
RightArm 34.723243 78.630223 0.103416
RightForeArm -84.271838 0.000000 140.590342
RightHand -8.683945 0.000000 42.246560
RightHandThumb1 -24.326973 -0.000000 -32.862282
LeftUpLeg -3.198274 7.281141 0.090946
LeftLeg -7.683381 -0.000000 0.000000
LeftFoot -22.267403 28.098710 -17.514223
LeftToeBase 23.195555 -0.000000 -0.000000
RightUpLeg -5.062968 -9.384489 1.306316
RightLeg -4.215081 -0.000000 0.000000
RightFoot -21.295531 -22.025870 21.386538
RightToeBase 22.306563 -0.000000 -0.000000
623
root 18.830117 35.605532 -23.667737 -164.530275 -0.823668 -178.480892
Spine -33.426709 1.995345 1.310079
Head 26.496257 -1.392815 -1.436345
LeftShoulder -33.506796 -49.669791 58.375525
LeftArm 34.685880 -64.223879 -6.532165
LeftForeArm -9.957727 0.000000 123.212959
LeftHand -20.027384 -0.000000 -19.624016
LeftHandThumb1 -26.253704 0.000000 33.147579
RightShoulder -22.240780 16.477807 -36.972906
RightArm 34.856856 78.621057 0.226262
RightForeArm -84.198352 -0.000000 140.574900
RightHand -8.679147 -0.000000 42.333613
RightHandThumb1 -24.326973 -0.000000 -32.862282
LeftUpLeg -3.196080 7.276736 0.097149
LeftLeg -7.678952 -0.000000 0.000000
LeftFoot -22.258327 28.087019 -17.491296
LeftToeBase 23.241451 -0.000000 -0.000000
RightUpLeg -5.068584 -9.389021 1.309209
RightLeg -4.205485 -0.000000 0.000000
RightFoot -21.288559 -22.044836 21.364789
RightToeBase 22.335338 -0.000000 -0.000000
624
root 18.830073 35.605738 -23.667199 -164.532553 -0.828892 -178.479472
Spine -33.424870 1.999564 1.307173
Head 26.501132 -1.399860 -1.443086
LeftShoulder -33.500145 -49.654091 58.360899
LeftArm 34.678486 -64.248396 -6.533087
LeftForeArm -10.157438 -0.000000 123.202291
LeftHand -20.075452 -0.000000 -19.674733
LeftHandThumb1 -26.253704 0.000000 33.147579
RightShoulder -22.249651 16.458171 -36.969259
RightArm 34.984497 78.607532 0.347805
RightForeArm -84.234650 -0.000000 140.565430
RightHand -8.768916 0.000000 42.273959
RightHandThumb1 -24.326973 -0.000000 -32.862282
LeftUpLeg -3.196999 7.273734 0.100134
LeftLeg -7.674519 -0.000000 0.000000
LeftFoot -22.245585 28.086559 -17.483557
LeftToeBase 23.186879 -0.000000 -0.000000
RightUpLeg -5.064031 -9.392833 1.310372
RightLeg -4.209964 -0.000000 0.000000
RightFoot -21.293608 -22.028961 21.389614
RightToeBase 22.351233 -0.000000 -0.000000
625
root 18.830060 35.605817 -23.666682 -164.539742 -0.832144 -178.472779
Spine -33.410484 2.017330 1.306978
Head 26.521683 -1.374289 -1.417577
LeftShoulder -33.500366 -49.646074 58.364378
LeftArm 34.679492 -64.274332 -6.569723
LeftForeArm -10.282787 -0.000000 123.186369
LeftHand -20.032743 -0.000000 -19.733321
LeftHandThumb1 -26.253704 0.000000 33.147579
RightShoulder -22.273697 16.420349 -36.961003
RightArm 35.151180 78.619486 0.487942
RightForeArm -84.280171 0.000000 140.542071
RightHand -8.757281 0.000000 42.285965
RightHandThumb1 -24.326973 -0.000000 -32.862282
LeftUpLeg -3.194546 7.288011 0.105670
LeftLeg -7.670826 -0.000000 0.000000
LeftFoot -22.262853 28.069402 -17.484899
LeftToeBase 23.233254 -0.000000 -0.000000
RightUpLeg -5.059276 -9.381215 1.315021
RightLeg -4.207688 -0.000000 0.000000
RightFoot -21.284731 -22.048287 21.382290
RightToeBase 22.336277 -0.000000 -0.000000
626
root 18.829270 35.605707 -23.666490 -164.545869 -0.842572 -178.475668
Spine -33.402785 2.019190 1.300115
Head 26.535017 -1.358000 -1.402784
LeftShoulder -33.469237 -49.606297 58.333813
LeftArm 34.699634 -64.312727 -6.608208
LeftForeArm -10.265838 0.000000 123.202964
LeftHand -20.041205 -0.000000 -19.762059
LeftHandThumb1 -26.253704 0.000000 33.147579
RightShoulder -22.279481 16.370188 -36.955281
RightArm 35.245069 78.638620 0.597842
RightForeArm -84.275230 0.000000 140.513991
RightHand -8.752081 -0.000000 42.258529
RightHandThumb1 -24.326973 -0.000000 -32.862282
LeftUpLeg -3.183966 7.274124 0.101093
LeftLeg -7.691675 -0.000000 0.000000
LeftFoot -22.259017 28.102098 -17.500354
LeftToeBase 23.210777 -0.000000 -0.000000
RightUpLeg -5.050439 -9.400226 1.314315
RightLeg -4.214299 -0.000000 0.000000
RightFoot -21.284347 -22.036071 21.386613
RightToeBase 22.379842 -0.000000 -0.000000
627
root 18.829073 35.605624 -23.665585 -164.550199 -0.855879 -178.474961
Spine -33.400316 2.015245 1.299604
Head 26.558488 -1.347866 -1.383896
LeftShoulder -33.428680 -49.564505 58.290973
LeftArm 34.708106 -64.344428 -6.627960
LeftForeArm -10.204455 0.000000 123.220601
LeftHand -20.035799 -0.000000 -19.777483
LeftHandThumb1 -26.253704 0.000000 33.147579
RightShoulder -22.284703 16.355796 -36.965743
RightArm 35.310219 78.599730 0.669509
RightForeArm -84.324546 0.000000 140.506015
RightHand -8.771662 -0.000000 42.308052
RightHandThumb1 -24.326973 -0.000000 -32.862282
LeftUpLeg -3.180113 7.255061 0.109686
LeftLeg -7.689217 -0.000000 0.000000
LeftFoot -22.252144 28.079045 -17.482095
LeftToeBase 23.241993 -0.000000 -0.000000
RightUpLeg -5.050195 -9.387068 1.315454
RightLeg -4.210155 -0.000000 0.000000
RightFoot -21.304169 -22.056063 21.400449
RightToeBase 22.327783 -0.000000 -0.000000
628
root 18.828188 35.605689 -23.664992 -164.557091 -0.864656 -178.475029
Spine -33.389139 2.014045 1.300972
Head 26.569763 -1.321474 -1.367850
LeftShoulder -33.431472 -49.540459 58.279369
LeftArm 34.654388 -64.342725 -6.576277
LeftForeArm -10.142403 -0.000000 123.234280
LeftHand -20.016566 0.000000 -19.736447
LeftHandThumb1 -26.253704 0.000000 33.147579
RightShoulder -22.284592 16.347335 -36.969950
RightArm 35.344282 78.571613 0.702656
RightForeArm -84.355521 -0.000000 140.498280
RightHand -8.809338 -0.000000 42.375502
RightHandThumb1 -24.326973 -0.000000 -32.862282
LeftUpLeg -3.175497 7.257492 0.109467
LeftLeg -7.692759 -0.000000 0.000000
LeftFoot -22.248472 28.075136 -17.486987
LeftToeBase 23.255665 -0.000000 -0.000000
RightUpLeg -5.043961 -9.371536 1.311883
RightLeg -4.208215 -0.000000 0.000000
RightFoot -21.309355 -22.076172 21.393502
RightToeBase 22.355284 -0.000000 -0.000000
629
root 18.827435 35.605756 -23.663834 -164.562293 -0.874200 -178.472765
Spine -33.383851 2.017141 1.299423
Head 26.588985 -1.326848 -1.353254
LeftShoulder -33.409337 -49.519268 58.267506
LeftArm 34.744535 -64.348460 -6.700312
LeftForeArm -9.958033 -0.000000 123.266563
LeftHand -20.028929 -0.000000 -19.758509
LeftHandThumb1 -26.253704 0.000000 33.147579
RightShoulder -22.281019 16.336674 -36.979260
RightArm 35.379173 78.553149 0.757320
RightForeArm -84.320394 -0.000000 140.480542
RightHand -8.834555 -0.000000 42.354569
RightHandThumb1 -24.326973 -0.000000 -32.862282
LeftUpLeg -3.168962 7.252876 0.110248
LeftLeg -7.707130 -0.000000 0.000000
LeftFoot -22.245972 28.089335 -17.494774
LeftToeBase 23.259075 -0.000000 -0.000000
RightUpLeg -5.037948 -9.376143 1.315056
RightLeg -4.213591 -0.000000 0.000000
RightFoot -21.297317 -22.081827 21.399145
RightToeBase 22.300548 -0.000000 -0.000000
630
root 18.827280 35.605719 -23.662294 -164.567843 -0.889118 -178.469963
Spine -33.386251 2.022227 1.292158
Head 26.603597 -1.378350 -1.370059
LeftShoulder -33.361248 -49.517132 58.221663
LeftArm 34.783927 -64.352312 -6.728030
LeftForeArm -9.896934 0.000000 123.272727
LeftHand -20.047244 -0.000000 -19.754913
LeftHandThumb1 -26.253704 0.000000 33.147579
RightShoulder -22.252984 16.317346 -36.975900
RightArm 35.204887 78.556515 0.583713
RightForeArm -84.313746 -0.000000 140.463348
RightHand -8.822577 -0.000000 42.344201
RightHandThumb1 -24.326973 -0.000000 -32.862282
LeftUpLeg -3.167632 7.237511 0.119307
LeftLeg -7.702392 -0.000000 0.000000
LeftFoot -22.242784 28.077560 -17.486134
LeftToeBase 23.233779 -0.000000 -0.000000
RightUpLeg -5.028905 -9.369205 1.317980
RightLeg -4.222311 -0.000000 0.000000
RightFoot -21.308899 -22.096608 21.420794
RightToeBase 22.314064 -0.000000 -0.000000
631
root 18.825646 35.606371 -23.660199 -164.575661 -0.896544 -178.471913
Spine -33.368171 2.022311 1.292002
Head 26.621212 -1.359264 -1.344274
LeftShoulder -33.398845 -49.538891 58.258203
LeftArm 34.793453 -64.317068 -6.751197
LeftForeArm -9.864939 -0.000000 123.277657
LeftHand -20.051763 0.000000 -19.742423
LeftHandThumb1 -26.253704 0.000000 33.147579
RightShoulder -22.259935 16.320172 -36.987386
RightArm 35.330936 78.562435 0.725684
RightForeArm -84.336197 0.000000 140.457663
RightHand -8.770422 -0.000000 42.341067
RightHandThumb1 -24.326973 -0.000000 -32.862282
LeftUpLeg -3.164938 7.232008 0.115230
LeftLeg -7.704186 -0.000000 0.000000
LeftFoot -22.246082 28.086407 -17.488859
LeftToeBase 23.242632 -0.000000 -0.000000
RightUpLeg -5.029082 -9.390380 1.316338
RightLeg -4.211141 -0.000000 0.000000
RightFoot -21.303779 -22.078007 21.425274
RightToeBase 22.295572 -0.000000 -0.000000
632
root 18.824986 35.606621 -23.657478 -164.577703 -0.906030 -178.472015
Spine -33.362571 2.025446 1.286627
Head 26.626869 -1.386205 -1.349714
LeftShoulder -33.383211 -49.533273 58.244725
LeftArm 34.781989 -64.321250 -6.750418
LeftForeArm -9.855664 -0.000000 123.273367
LeftHand -20.063313 -0.000000 -19.700509
LeftHandThumb1 -26.253704 0.000000 33.147579
RightShoulder -22.257999 16.329594 -36.993020
RightArm 35.378206 78.551413 0.775070
RightForeArm -84.345807 -0.000000 140.448474
RightHand -8.740395 0.000000 42.316268
RightHandThumb1 -24.326973 -0.000000 -32.862282
LeftUpLeg -3.166808 7.217584 0.115330
LeftLeg -7.708821 -0.000000 0.000000
LeftFoot -22.242159 28.107225 -17.491916
LeftToeBase 23.224143 -0.000000 -0.000000
RightUpLeg -5.024280 -9.399606 1.315982
RightLeg -4.217902 -0.000000 0.000000
RightFoot -21.283448 -22.084770 21.390536
RightToeBase 22.325036 -0.000000 -0.000000
